<svg width="71.000000" height="71.000000" viewBox="0 0 71 71" fill="none" xmlns="http://www.w3.org/2000/svg" xmlns:xlink="http://www.w3.org/1999/xlink">
	<desc>
			Created with Pixso.
	</desc>
	<defs>
		<clipPath id="clip3_3">
			<rect id="material-symbols:ecg-heart-outline" width="71.000000" height="71.000000" fill="white" fill-opacity="0"/>
		</clipPath>
	</defs>
	<rect id="material-symbols:ecg-heart-outline" width="71.000000" height="71.000000" fill="#FFFFFF" fill-opacity="0"/>
	<g clip-path="url(#clip3_3)">
		<path id="Vector" d="M35.5 62.12C34.61 62.12 33.76 61.96 32.94 61.64C32.13 61.32 31.4 60.84 30.76 60.2L10.94 40.3C9.22 38.58 7.95 36.6 7.13 34.39C6.32 32.17 5.91 29.85 5.91 27.43C5.91 22.36 7.56 17.99 10.87 14.34C14.17 10.69 18.29 8.87 23.22 8.87C25.58 8.87 27.82 9.34 29.91 10.28C32.01 11.21 33.87 12.52 35.5 14.2C37.07 12.52 38.91 11.21 41.01 10.28C43.1 9.34 45.33 8.87 47.7 8.87C52.63 8.87 56.76 10.69 60.09 14.34C63.42 17.99 65.08 22.33 65.08 27.36C65.08 29.78 64.66 32.09 63.82 34.31C62.98 36.53 61.73 38.5 60.05 40.23L40.15 60.2C39.51 60.84 38.8 61.32 38.01 61.64C37.22 61.96 36.38 62.12 35.5 62.12ZM38.45 23.66C38.95 23.66 39.41 23.79 39.86 24.03C40.3 24.28 40.65 24.6 40.89 24.99L45.92 32.54L58.2 32.54C58.55 31.7 58.8 30.85 58.98 29.99C59.15 29.12 59.24 28.25 59.24 27.36C59.14 23.96 58 21.04 55.83 18.59C53.66 16.15 50.95 14.93 47.7 14.93C46.17 14.93 44.7 15.23 43.3 15.82C41.89 16.41 40.67 17.28 39.64 18.41L37.64 20.56C37.39 20.85 37.07 21.09 36.68 21.26C36.28 21.43 35.89 21.52 35.5 21.52C35.1 21.52 34.71 21.43 34.31 21.26C33.92 21.09 33.57 20.86 33.28 20.56L31.28 18.41C30.24 17.28 29.04 16.39 27.66 15.75C26.27 15.11 24.8 14.79 23.22 14.79C19.96 14.79 17.25 16.03 15.08 18.52C12.91 21.01 11.83 23.96 11.83 27.36C11.83 28.25 11.9 29.12 12.05 29.99C12.2 30.85 12.44 31.7 12.79 32.54L26.62 32.54C27.11 32.54 27.58 32.66 28.03 32.91C28.47 33.15 28.81 33.47 29.06 33.87L31.65 37.71L35.64 25.73C35.84 25.14 36.2 24.65 36.71 24.25C37.23 23.86 37.81 23.66 38.45 23.66ZM39.34 33.28L35.35 45.26C35.15 45.85 34.78 46.34 34.24 46.74C33.7 47.13 33.1 47.33 32.46 47.33C31.97 47.33 31.5 47.21 31.06 46.96C30.61 46.71 30.27 46.39 30.02 46L24.99 38.45L17.45 38.45L34.98 55.98C35.08 56.08 35.16 56.14 35.24 56.17C35.31 56.19 35.4 56.21 35.5 56.2C35.59 56.2 35.68 56.19 35.76 56.17C35.83 56.15 35.92 56.08 36.01 55.98L53.47 38.45L44.37 38.45C43.88 38.45 43.41 38.33 42.96 38.08C42.52 37.84 42.15 37.52 41.86 37.12L39.34 33.28Z" fill="#576C70" fill-opacity="0.500000" fill-rule="nonzero"/>
	</g>
</svg>
