<svg width="71.000000" height="71.000000" viewBox="0 0 71 71" fill="none" xmlns="http://www.w3.org/2000/svg" xmlns:xlink="http://www.w3.org/1999/xlink">
	<desc>
			Created with Pixso.
	</desc>
	<defs>
		<clipPath id="clip3_4">
			<rect id="material-symbols:syringe-outline-rounded" width="71.000000" height="71.000000" transform="translate(0.000000 71.000000) rotate(-90.000000)" fill="white" fill-opacity="0"/>
		</clipPath>
	</defs>
	<rect id="material-symbols:syringe-outline-rounded" width="71.000000" height="71.000000" transform="translate(0.000000 71.000000) rotate(-90.000000)" fill="#FFFFFF" fill-opacity="0"/>
	<g clip-path="url(#clip3_4)">
		<path id="Vector" d="M33.05 59.46C32.46 60 31.76 60.27 30.95 60.27C30.14 60.27 29.43 60 28.84 59.46L20.56 51.17L17.38 54.35L18.26 55.24C18.85 55.83 19.15 56.54 19.15 57.35C19.15 58.16 18.85 58.86 18.26 59.46C17.72 60 17.03 60.27 16.19 60.27C15.35 60.27 14.66 60 14.12 59.46L8.2 53.54C7.61 52.95 7.32 52.25 7.32 51.43C7.32 50.62 7.61 49.91 8.2 49.33C8.75 48.78 9.44 48.51 10.28 48.51C11.11 48.51 11.8 48.78 12.35 49.33L13.23 50.21L16.41 47.03L8.13 38.75C7.54 38.16 7.24 37.45 7.24 36.64C7.24 35.83 7.54 35.12 8.13 34.53C8.72 33.94 9.43 33.65 10.24 33.65C11.05 33.64 11.76 33.94 12.35 34.53L14.27 36.53L36.09 14.71C37.22 13.58 38.61 13.01 40.27 13.01C41.92 13.01 43.31 13.58 44.44 14.71L46.59 16.78L57.98 5.32C58.47 4.83 59.01 4.7 59.61 4.95C60.2 5.2 60.49 5.67 60.49 6.36L60.49 9.39C60.49 9.98 60.37 10.56 60.12 11.12C59.88 11.69 59.56 12.17 59.16 12.57L50.73 21L52.88 23.07C54.01 24.2 54.58 25.6 54.58 27.25C54.58 28.9 54.01 30.29 52.88 31.43L31.06 53.25L33.05 55.24C33.6 55.83 33.87 56.54 33.87 57.35C33.87 58.16 33.6 58.86 33.05 59.46ZM26.92 49.1L48.73 27.29L40.3 18.93L35.79 23.37L39.93 27.51C40.48 28.1 40.76 28.8 40.78 29.61C40.81 30.43 40.55 31.1 40.01 31.65C39.41 32.24 38.71 32.54 37.9 32.54C37.09 32.54 36.38 32.24 35.79 31.65L31.65 27.51L27.21 31.95L31.35 36.09C31.9 36.68 32.17 37.38 32.17 38.19C32.17 39.01 31.9 39.71 31.35 40.3C30.76 40.84 30.06 41.12 29.25 41.12C28.43 41.12 27.73 40.84 27.14 40.3L23 36.16L18.48 40.67L26.92 49.1Z" fill="#576C70" fill-opacity="0.500000" fill-rule="nonzero"/>
	</g>
</svg>
