<svg width="72.000000" height="72.000000" viewBox="0 0 72 72" fill="none" xmlns="http://www.w3.org/2000/svg" xmlns:xlink="http://www.w3.org/1999/xlink">
	<desc>
			Created with Pixso.
	</desc>
	<defs>
		<clipPath id="clip3_6">
			<rect id="solar:bone-broken-linear" width="72.000000" height="72.000000" fill="white" fill-opacity="0"/>
		</clipPath>
	</defs>
	<rect id="solar:bone-broken-linear" width="72.000000" height="72.000000" fill="#FFFFFF" fill-opacity="0"/>
	<g clip-path="url(#clip3_6)">
		<path id="Vector" d="M39.86 17.36C40.31 18.97 40.38 20.92 39.2 22.1L35.36 25.94C35.31 25.99 35.28 26.05 35.26 26.12C35.24 26.18 35.24 26.25 35.25 26.32C35.26 26.38 35.29 26.44 35.33 26.5C35.38 26.55 35.43 26.59 35.49 26.62C39.93 28.52 43.47 32.06 45.37 36.5C45.4 36.56 45.44 36.61 45.49 36.66C45.55 36.7 45.61 36.73 45.68 36.74C45.74 36.75 45.81 36.75 45.88 36.73C45.94 36.71 46 36.68 46.05 36.63L49.89 32.79C51.07 31.61 53.02 31.68 54.62 32.13C57.67 32.97 61.55 31.81 63.78 29.58C65.2 28.17 65.99 26.24 66 24.24C66 22.24 65.2 20.31 63.78 18.9C63.08 18.19 62.25 17.64 61.33 17.26C60.41 16.88 59.43 16.68 58.44 16.68C56.43 16.68 54.51 17.48 53.09 18.89C54.51 17.48 55.31 15.56 55.31 13.55C55.31 11.55 54.51 9.62 53.09 8.21C51.68 6.79 49.75 5.99 47.75 5.99C45.75 6 43.82 6.79 42.41 8.21C40.18 10.44 39.02 14.32 39.86 17.36ZM13.55 55.31C15.56 55.31 17.48 54.51 18.89 53.09C17.48 54.51 16.68 56.43 16.68 58.44C16.68 60.44 17.48 62.37 18.9 63.78C20.31 65.2 22.24 66 24.24 66C26.24 66 28.17 65.2 29.58 63.78C31.81 61.55 32.97 57.67 32.13 54.62C31.68 53.02 31.61 51.07 32.79 49.89L36.63 46.05C36.68 46 36.71 45.94 36.73 45.87C36.75 45.81 36.75 45.74 36.74 45.67C36.73 45.61 36.7 45.55 36.66 45.49C36.61 45.44 36.56 45.4 36.5 45.37C32.06 43.47 28.52 39.93 26.62 35.49C26.59 35.43 26.55 35.38 26.5 35.33C26.44 35.29 26.38 35.26 26.31 35.25C26.25 35.24 26.18 35.24 26.11 35.26C26.05 35.28 25.99 35.31 25.94 35.36L22.1 39.2C20.92 40.38 18.97 40.31 17.36 39.86C14.32 39.02 10.44 40.18 8.21 42.41C7.51 43.11 6.95 43.94 6.57 44.86C6.19 45.78 5.99 46.76 5.99 47.75C5.99 48.74 6.19 49.73 6.57 50.64C6.95 51.56 7.51 52.39 8.21 53.09C9.63 54.51 11.55 55.31 13.55 55.31Z" stroke="#576C70" stroke-opacity="0.500000" stroke-width="4.500000" stroke-linejoin="round"/>
		<path id="Vector" d="M52.97 52.97L57.21 57.21M19.02 19.02L14.79 14.79M45 57L45 60M15 27L12 27M57 45L60 45M27 15L27 12" stroke="#576C70" stroke-opacity="0.500000" stroke-width="4.500000"/>
	</g>
</svg>
