<svg width="72.000000" height="72.000000" viewBox="0 0 72 72" fill="none" xmlns="http://www.w3.org/2000/svg" xmlns:xlink="http://www.w3.org/1999/xlink">
	<desc>
			Created with Pixso.
	</desc>
	<defs>
		<clipPath id="clip3_8">
			<rect id="mdi:allergy-outline" width="72.000000" height="72.000000" fill="white" fill-opacity="0"/>
		</clipPath>
	</defs>
	<rect id="mdi:allergy-outline" width="72.000000" height="72.000000" fill="#FFFFFF" fill-opacity="0"/>
	<g clip-path="url(#clip3_8)">
		<path id="Vector" d="M33 18C33 16.35 34.35 15 36 15C37.64 15 39 16.35 39 18C39 19.64 37.64 21 36 21C34.35 21 33 19.64 33 18ZM24 27C25.64 27 27 25.64 27 24C27 22.35 25.64 21 24 21C22.35 21 21 22.35 21 24C21 25.64 22.35 27 24 27ZM18 15C18 13.35 16.64 12 15 12C13.35 12 12 13.35 12 15C12 16.64 13.35 18 15 18C16.64 18 18 16.64 18 15ZM27 12C28.64 12 30 10.64 30 9C30 7.35 28.64 6 27 6C25.35 6 24 7.35 24 9C24 10.64 25.35 12 27 12ZM45 12C46.64 12 48 10.64 48 9C48 7.35 46.64 6 45 6C43.35 6 42 7.35 42 9C42 10.64 43.35 12 45 12ZM57 12C55.35 12 54 13.35 54 15C54 16.64 55.35 18 57 18C58.64 18 60 16.64 60 15C60 13.35 58.64 12 57 12ZM45 24C45 25.64 46.35 27 48 27C49.64 27 51 25.64 51 24C51 22.35 49.64 21 48 21C46.35 21 45 22.35 45 24ZM55.5 39.21C55.5 41.34 54.72 43.37 53.43 45C54.68 46.62 55.5 48.65 55.5 50.79C55.5 55.98 51.21 60.21 46.02 60.21L44.73 60.12C43.31 63.57 39.93 66 36 66C32.06 66 28.68 63.57 27.27 60.12L25.98 60.21C20.75 60.21 16.5 55.98 16.5 50.79C16.5 48.65 17.27 46.62 18.56 45C17.31 43.37 16.5 41.34 16.5 39.21C16.5 34.02 20.79 29.79 25.98 29.79L27.27 29.87C28.68 26.42 32.06 24 36 24C39.93 24 43.31 26.42 44.73 29.87L46.02 29.79C51.21 29.79 55.5 34.02 55.5 39.21ZM22.5 39.21C22.5 40.5 23.31 41.7 24.5 42.3L27.14 43.5C27.5 41.34 28.68 39.41 30.33 38.07L27.89 36.38C27.35 36 26.7 35.79 25.98 35.79C24.08 35.79 22.5 37.32 22.5 39.21ZM30.35 51.92C28.68 50.58 27.5 48.65 27.14 46.5L24.5 47.7C23.31 48.3 22.5 49.5 22.5 50.76C22.5 52.64 24.08 54.17 25.98 54.17C26.66 54.17 27.33 54 27.93 53.58L30.35 51.92ZM39.41 56.7L39.08 53.42C38.12 53.79 37.08 54 36 54C34.91 54 33.89 53.79 33 53.42L32.58 56.7C32.64 58.5 34.14 60 36 60C37.85 60 39.35 58.5 39.41 56.7ZM39.41 33.3C39.35 31.5 37.85 30 36 30C34.14 30 32.64 31.5 32.58 33.3L33 36.57C33.89 36.21 34.91 36 36 36C37.08 36 38.12 36.21 39.08 36.57L39.41 33.3ZM49.5 50.76C49.5 49.5 48.68 48.24 47.49 47.66L44.85 46.4C44.49 48.62 43.31 50.55 41.66 51.89L44.1 53.61C44.64 54 45.29 54.21 46.02 54.21C47.91 54.21 49.5 52.67 49.5 50.76ZM49.5 39.21C49.5 37.32 47.91 35.79 46.02 35.79C45.33 35.79 44.66 36 44.06 36.38L41.6 38.07C43.29 39.41 44.46 41.34 44.81 43.5L47.46 42.3C48.68 41.7 49.5 40.5 49.5 39.21Z" fill="#ABB6B7" fill-opacity="1.000000" fill-rule="nonzero"/>
	</g>
</svg>
