<svg width="72.000000" height="72.000000" viewBox="0 0 72 72" fill="none" xmlns="http://www.w3.org/2000/svg" xmlns:xlink="http://www.w3.org/1999/xlink">
	<desc>
			Created with Pixso.
	</desc>
	<defs>
		<clipPath id="clip3_10">
			<rect id="material-symbols:pill-outline" width="72.000000" height="72.000000" fill="white" fill-opacity="0"/>
		</clipPath>
	</defs>
	<rect id="material-symbols:pill-outline" width="72.000000" height="72.000000" fill="#FFFFFF" fill-opacity="0"/>
	<g clip-path="url(#clip3_10)">
		<path id="Vector" d="M25.87 63C21.17 63 17.18 61.36 13.91 58.08C10.63 54.81 8.99 50.82 9 46.12C9 43.87 9.42 41.72 10.27 39.67C11.12 37.62 12.35 35.8 13.95 34.2L34.2 13.95C35.79 12.35 37.62 11.12 39.67 10.27C41.72 9.42 43.87 9 46.12 9C50.82 9 54.81 10.63 58.08 13.91C61.36 17.18 63 21.17 63 25.87C63 28.12 62.57 30.27 61.72 32.32C60.87 34.37 59.64 36.2 58.04 37.8L37.79 58.05C36.2 59.64 34.37 60.87 32.32 61.72C30.27 62.57 28.12 63 25.87 63ZM45.82 41.55L53.85 33.6C54.85 32.6 55.62 31.42 56.17 30.07C56.72 28.72 57 27.32 57 25.87C57 22.87 55.93 20.31 53.81 18.18C51.68 16.06 49.12 15 46.12 15C44.67 15 43.27 15.27 41.92 15.82C40.57 16.37 39.39 17.14 38.39 18.14L30.45 26.17L45.82 41.55ZM25.87 57C27.32 57 28.72 56.72 30.07 56.17C31.42 55.62 32.6 54.85 33.6 53.85L41.54 45.82L26.17 30.45L18.14 38.39C17.14 39.39 16.37 40.57 15.82 41.92C15.27 43.27 15 44.67 15 46.12C15 49.12 16.06 51.68 18.18 53.81C20.31 55.93 22.87 57 25.87 57Z" fill="#ABB6B7" fill-opacity="1.000000" fill-rule="nonzero"/>
	</g>
</svg>
