<svg width="72.000000" height="72.000000" viewBox="0 0 72 72" fill="none" xmlns="http://www.w3.org/2000/svg" xmlns:xlink="http://www.w3.org/1999/xlink">
	<desc>
			Created with Pixso.
	</desc>
	<defs>
		<clipPath id="clip3_11">
			<rect id="ph:brain" width="72.000000" height="72.000000" fill="white" fill-opacity="0"/>
		</clipPath>
	</defs>
	<rect id="ph:brain" width="72.000000" height="72.000000" fill="#FFFFFF" fill-opacity="0"/>
	<g clip-path="url(#clip3_11)">
		<path id="Vector" d="M69.75 34.87C69.74 31.89 68.9 28.97 67.3 26.45C65.71 23.93 63.44 21.92 60.75 20.64L60.75 20.25C60.74 17.35 59.81 14.52 58.08 12.2C56.35 9.87 53.91 8.17 51.14 7.33C48.36 6.49 45.39 6.57 42.66 7.56C39.94 8.54 37.6 10.38 36 12.79C34.39 10.38 32.06 8.54 29.33 7.56C26.6 6.57 23.63 6.49 20.85 7.33C18.08 8.17 15.64 9.87 13.91 12.2C12.18 14.52 11.25 17.35 11.25 20.25L11.25 20.64C8.55 21.91 6.28 23.93 4.68 26.45C3.09 28.97 2.24 31.89 2.24 34.87C2.24 37.85 3.09 40.77 4.68 43.29C6.28 45.81 8.55 47.82 11.25 49.1L11.25 49.5C11.25 52.39 12.18 55.22 13.91 57.54C15.64 59.87 18.08 61.57 20.85 62.41C23.63 63.25 26.6 63.17 29.33 62.18C32.06 61.2 34.39 59.36 36 56.95C37.6 59.36 39.94 61.2 42.66 62.18C45.39 63.17 48.36 63.25 51.14 62.41C53.91 61.57 56.35 59.87 58.08 57.54C59.81 55.22 60.74 52.39 60.75 49.5L60.75 49.1C63.44 47.82 65.71 45.8 67.3 43.29C68.89 40.77 69.74 37.85 69.75 34.87ZM24.75 58.5C22.53 58.49 20.39 57.67 18.73 56.19C17.08 54.71 16.04 52.67 15.8 50.46C16.53 50.57 17.26 50.62 18 50.62L20.25 50.62C20.84 50.62 21.41 50.38 21.84 49.96C22.26 49.54 22.5 48.97 22.5 48.37C22.5 47.77 22.26 47.2 21.84 46.78C21.41 46.36 20.84 46.12 20.25 46.12L18 46.12C15.34 46.12 12.77 45.19 10.74 43.48C8.7 41.76 7.34 39.39 6.89 36.77C6.44 34.15 6.94 31.46 8.28 29.17C9.63 26.88 11.74 25.14 14.25 24.26C14.68 24.1 15.06 23.82 15.33 23.44C15.6 23.06 15.75 22.6 15.75 22.14L15.75 20.25C15.75 17.86 16.69 15.57 18.38 13.88C20.07 12.19 22.36 11.25 24.75 11.25C27.13 11.25 29.42 12.19 31.11 13.88C32.8 15.57 33.75 17.86 33.75 20.25L33.75 39.44C31.27 37.22 28.07 35.99 24.75 36C24.15 36 23.58 36.23 23.15 36.65C22.73 37.08 22.5 37.65 22.5 38.25C22.5 38.84 22.73 39.41 23.15 39.84C23.58 40.26 24.15 40.5 24.75 40.5C27.13 40.5 29.42 41.44 31.11 43.13C32.8 44.82 33.75 47.11 33.75 49.5C33.75 51.88 32.8 54.17 31.11 55.86C29.42 57.55 27.13 58.5 24.75 58.5ZM54 46.12L51.75 46.12C51.15 46.12 50.58 46.36 50.15 46.78C49.73 47.2 49.5 47.77 49.5 48.37C49.5 48.97 49.73 49.54 50.15 49.96C50.58 50.38 51.15 50.62 51.75 50.62L54 50.62C54.73 50.62 55.46 50.57 56.19 50.46C56 52.19 55.32 53.83 54.22 55.18C53.13 56.53 51.66 57.53 50.01 58.06C48.35 58.59 46.58 58.64 44.9 58.18C43.22 57.73 41.71 56.8 40.55 55.51C39.38 54.21 38.62 52.61 38.35 50.89C38.08 49.17 38.32 47.42 39.03 45.83C39.73 44.24 40.89 42.89 42.35 41.94C43.8 41 45.51 40.49 47.25 40.5C47.84 40.5 48.41 40.26 48.84 39.84C49.26 39.41 49.5 38.84 49.5 38.25C49.5 37.65 49.26 37.08 48.84 36.65C48.41 36.23 47.84 36 47.25 36C43.92 35.99 40.72 37.22 38.25 39.44L38.25 20.25C38.25 17.86 39.19 15.57 40.88 13.88C42.57 12.19 44.86 11.25 47.25 11.25C49.63 11.25 51.92 12.19 53.61 13.88C55.3 15.57 56.25 17.86 56.25 20.25L56.25 22.14C56.25 22.6 56.39 23.06 56.66 23.44C56.93 23.82 57.31 24.1 57.74 24.26C60.25 25.14 62.36 26.88 63.71 29.17C65.05 31.46 65.55 34.15 65.1 36.77C64.65 39.39 63.29 41.76 61.25 43.48C59.22 45.19 56.65 46.12 54 46.12ZM58.5 31.5C58.5 32.09 58.26 32.66 57.84 33.09C57.41 33.51 56.84 33.75 56.25 33.75L55.12 33.75C52.43 33.75 49.86 32.68 47.96 30.78C46.06 28.88 45 26.31 45 23.62L45 22.5C45 21.9 45.23 21.33 45.65 20.9C46.08 20.48 46.65 20.25 47.25 20.25C47.84 20.25 48.41 20.48 48.84 20.9C49.26 21.33 49.5 21.9 49.5 22.5L49.5 23.62C49.5 25.11 50.09 26.54 51.14 27.6C52.2 28.65 53.63 29.25 55.12 29.25L56.25 29.25C56.84 29.25 57.41 29.48 57.84 29.9C58.26 30.33 58.5 30.9 58.5 31.5ZM16.87 33.75L15.75 33.75C15.15 33.75 14.58 33.51 14.15 33.09C13.73 32.66 13.5 32.09 13.5 31.5C13.5 30.9 13.73 30.33 14.15 29.9C14.58 29.48 15.15 29.25 15.75 29.25L16.87 29.25C18.36 29.25 19.79 28.65 20.85 27.6C21.9 26.54 22.5 25.11 22.5 23.62L22.5 22.5C22.5 21.9 22.73 21.33 23.15 20.9C23.58 20.48 24.15 20.25 24.75 20.25C25.34 20.25 25.91 20.48 26.34 20.9C26.76 21.33 27 21.9 27 22.5L27 23.62C27 26.31 25.93 28.88 24.03 30.78C22.13 32.68 19.56 33.75 16.87 33.75Z" fill="#ABB6B7" fill-opacity="1.000000" fill-rule="nonzero"/>
	</g>
</svg>
