<svg width="72.000000" height="72.000000" viewBox="0 0 72 72" fill="none" xmlns="http://www.w3.org/2000/svg" xmlns:xlink="http://www.w3.org/1999/xlink">
	<desc>
			Created with Pixso.
	</desc>
	<defs>
		<clipPath id="clip3_9">
			<rect id="fluent:eye-12-regular" width="72.000000" height="72.000000" fill="white" fill-opacity="0"/>
		</clipPath>
	</defs>
	<rect id="fluent:eye-12-regular" width="72.000000" height="72.000000" fill="#FFFFFF" fill-opacity="0"/>
	<g clip-path="url(#clip3_9)">
		<path id="Vector" d="M11.84 39.95C11.57 40.68 11.03 41.28 10.32 41.62C9.62 41.96 8.81 42.01 8.07 41.76C7.33 41.51 6.72 40.99 6.36 40.29C6 39.6 5.92 38.79 6.15 38.05C6.26 37.72 6.38 37.39 6.52 37.07C6.76 36.5 7.12 35.71 7.6 34.78C8.59 32.92 10.13 30.45 12.41 27.97C17 22.96 24.52 18 36 18C47.47 18 54.99 22.96 59.58 27.97C62.03 30.66 64.02 33.73 65.46 37.07L65.74 37.75C65.75 37.8 65.81 38.11 65.87 38.41L66 39C66 39 66.5 40.99 63.94 41.84C63.19 42.09 62.37 42.03 61.66 41.68C60.95 41.33 60.41 40.71 60.15 39.96L60.15 39.94L60.11 39.84L59.93 39.37C58.75 36.68 57.14 34.19 55.16 32.02C51.5 28.04 45.52 24 36 24C26.47 24 20.49 28.03 16.83 32.02C14.85 34.2 13.24 36.68 12.06 39.37L11.88 39.84L11.84 39.95ZM36 30C32.81 30 29.76 31.26 27.51 33.51C25.26 35.76 24 38.81 24 42C24 45.18 25.26 48.23 27.51 50.48C29.76 52.73 32.81 54 36 54C39.18 54 42.23 52.73 44.48 50.48C46.73 48.23 48 45.18 48 42C48 38.81 46.73 35.76 44.48 33.51C42.23 31.26 39.18 30 36 30ZM30 42C30 40.4 30.63 38.88 31.75 37.75C32.88 36.63 34.4 36 36 36C37.59 36 39.11 36.63 40.24 37.75C41.36 38.88 42 40.4 42 42C42 43.59 41.36 45.11 40.24 46.24C39.11 47.36 37.59 48 36 48C34.4 48 32.88 47.36 31.75 46.24C30.63 45.11 30 43.59 30 42Z" fill="#ABB6B7" fill-opacity="1.000000" fill-rule="nonzero"/>
	</g>
</svg>
