<svg width="72.000000" height="72.000000" viewBox="0 0 72 72" fill="none" xmlns="http://www.w3.org/2000/svg" xmlns:xlink="http://www.w3.org/1999/xlink">
	<desc>
			Created with Pixso.
	</desc>
	<defs>
		<clipPath id="clip3_12">
			<rect id="streamline:petri-dish-lab-equipment" width="72.000000" height="72.000000" fill="white" fill-opacity="0"/>
		</clipPath>
	</defs>
	<rect id="streamline:petri-dish-lab-equipment" width="72.000000" height="72.000000" fill="#FFFFFF" fill-opacity="0"/>
	<g clip-path="url(#clip3_12)">
		<path id="Vector" d="M12.36 59.63C18.63 65.9 27.13 69.42 36 69.42C44.86 69.42 53.36 65.9 59.63 59.63C65.9 53.36 69.42 44.86 69.42 36C69.42 27.13 65.9 18.63 59.63 12.36C53.36 6.09 44.86 2.57 36 2.57C27.13 2.57 18.63 6.09 12.36 12.36C6.09 18.63 2.57 27.13 2.57 36C2.57 44.86 6.09 53.36 12.36 59.63Z" stroke="#ABB6B7" stroke-opacity="1.000000" stroke-width="5.000000" stroke-linejoin="round"/>
		<path id="Vector" d="M13 39.41C14.47 38.7 18.11 37.81 20.9 39.95C23.67 42.09 23.75 45.84 23.43 47.45C23.12 49.05 23.19 52.8 25.97 54.94C28.75 57.09 32.39 56.2 33.87 55.48M49.8 32.23C51.12 31.45 52.21 30.32 52.95 28.97C53.69 27.62 54.05 26.1 54 24.56C53.95 23.02 53.48 21.52 52.65 20.23C51.82 18.93 50.66 17.88 49.28 17.19C47.91 16.5 46.37 16.19 44.84 16.3C43.3 16.4 41.82 16.92 40.56 17.8C39.29 18.67 38.28 19.87 37.64 21.27C36.56 20.72 35.36 20.49 34.15 20.59C32.95 20.7 31.8 21.14 30.84 21.87C29.87 22.6 29.14 23.59 28.71 24.72C28.28 25.85 28.18 27.08 28.41 28.26C28.65 29.44 29.22 30.54 30.05 31.42C30.88 32.29 31.94 32.92 33.11 33.22C34.28 33.52 35.51 33.49 36.66 33.12C37.81 32.76 38.84 32.08 39.62 31.16C41.2 32.62 43.28 33.43 45.43 33.42L45.42 33.42C46.96 33.43 48.47 33.01 49.8 32.23ZM41.51 45.9C41.27 45.66 41.14 45.34 41.14 45C41.14 44.65 41.27 44.33 41.51 44.09C41.76 43.84 42.08 43.71 42.42 43.71C42.76 43.71 43.09 43.84 43.33 44.09C43.57 44.33 43.71 44.65 43.71 45C43.71 45.34 43.57 45.66 43.33 45.9C43.09 46.15 42.76 46.28 42.42 46.28C42.08 46.28 41.76 46.15 41.51 45.9ZM15.8 27.9C15.56 27.66 15.42 27.34 15.42 27C15.42 26.65 15.56 26.33 15.8 26.09C16.04 25.84 16.37 25.71 16.71 25.71C17.05 25.71 17.38 25.84 17.62 26.09C17.86 26.33 18 26.65 18 27C18 27.34 17.86 27.66 17.62 27.9C17.38 28.15 17.05 28.28 16.71 28.28C16.37 28.28 16.04 28.15 15.8 27.9ZM51.8 51.05C51.56 50.81 51.42 50.48 51.42 50.14C51.42 49.8 51.56 49.47 51.8 49.23C52.04 48.99 52.37 48.85 52.71 48.85C53.05 48.85 53.38 48.99 53.62 49.23C53.86 49.47 54 49.8 54 50.14C54 50.48 53.86 50.81 53.62 51.05C53.38 51.29 53.05 51.42 52.71 51.42C52.37 51.42 52.04 51.29 51.8 51.05Z" stroke="#ABB6B7" stroke-opacity="1.000000" stroke-width="5.000000" stroke-linejoin="round" stroke-linecap="round"/>
	</g>
</svg>
