<svg width="39" height="28" viewBox="0 0 39 28" fill="none" xmlns="http://www.w3.org/2000/svg">
<path d="M29.75 0C26.7575 0 24.9375 0.5775 23.8875 1.0675C22.54 0.4025 21 0 19.25 0C17.5 0 15.96 0.4025 14.6125 1.0675C13.5625 0.5775 11.7425 0 8.75 0C3.5 0 0 14 0 17.5C0 18.9525 2.31 20.2825 5.495 20.825C6.615 24.745 11.9 27.7375 18.375 28V20.51C17.3425 19.8625 15.75 18.69 15.75 17.5C15.75 15.75 19.25 15.75 19.25 15.75C19.25 15.75 22.75 15.75 22.75 17.5C22.75 18.69 21.1575 19.8625 20.125 20.51V28C26.6 27.7375 31.885 24.745 33.005 20.825C36.19 20.2825 38.5 18.9525 38.5 17.5C38.5 14 35 0 29.75 0ZM5.5125 17.2725C4.6375 17.0625 3.955 16.8175 3.5 16.625C3.9375 11.7775 7.35 4.2 8.8375 3.5C9.7825 3.5 10.5 3.605 11.1475 3.6925C7.4725 7.735 6.02 14.07 5.5125 17.2725ZM14 14C13.5359 14 13.0908 13.8156 12.7626 13.4874C12.4344 13.1592 12.25 12.7141 12.25 12.25C12.25 11.305 13.0375 10.5 14 10.5C14.4641 10.5 14.9092 10.6844 15.2374 11.0126C15.5656 11.3408 15.75 11.7859 15.75 12.25C15.75 13.23 14.9625 14 14 14ZM24.5 14C24.0359 14 23.5908 13.8156 23.2626 13.4874C22.9344 13.1592 22.75 12.7141 22.75 12.25C22.75 11.305 23.5375 10.5 24.5 10.5C24.9641 10.5 25.4092 10.6844 25.7374 11.0126C26.0656 11.3408 26.25 11.7859 26.25 12.25C26.25 13.23 25.4625 14 24.5 14ZM32.9875 17.2725C32.48 14.07 31.0275 7.735 27.3525 3.6925C28 3.605 28.7175 3.5 29.6625 3.5C31.15 4.2 34.5625 11.7775 35 16.625C34.5625 16.8175 33.88 17.0625 32.9875 17.2725Z" fill="#DCEBED"/>
</svg>
