<svg width="186" height="62" viewBox="0 0 186 62" fill="none" xmlns="http://www.w3.org/2000/svg">
<path d="M98.5 27C95.5075 27 93.6875 27.5775 92.6375 28.0675C91.29 27.4025 89.75 27 88 27C86.25 27 84.71 27.4025 83.3625 28.0675C82.3125 27.5775 80.4925 27 77.5 27C72.25 27 68.75 41 68.75 44.5C68.75 45.9525 71.06 47.2825 74.245 47.825C75.365 51.745 80.65 54.7375 87.125 55V47.51C86.0925 46.8625 84.5 45.69 84.5 44.5C84.5 42.75 88 42.75 88 42.75C88 42.75 91.5 42.75 91.5 44.5C91.5 45.69 89.9075 46.8625 88.875 47.51V55C95.35 54.7375 100.635 51.745 101.755 47.825C104.94 47.2825 107.25 45.9525 107.25 44.5C107.25 41 103.75 27 98.5 27ZM74.2625 44.2725C73.3875 44.0625 72.705 43.8175 72.25 43.625C72.6875 38.7775 76.1 31.2 77.5875 30.5C78.5325 30.5 79.25 30.605 79.8975 30.6925C76.2225 34.735 74.77 41.07 74.2625 44.2725ZM82.75 41C82.2859 41 81.8408 40.8156 81.5126 40.4874C81.1844 40.1592 81 39.7141 81 39.25C81 38.305 81.7875 37.5 82.75 37.5C83.2141 37.5 83.6592 37.6844 83.9874 38.0126C84.3156 38.3408 84.5 38.7859 84.5 39.25C84.5 40.23 83.7125 41 82.75 41ZM93.25 41C92.7859 41 92.3408 40.8156 92.0126 40.4874C91.6844 40.1592 91.5 39.7141 91.5 39.25C91.5 38.305 92.2875 37.5 93.25 37.5C93.7141 37.5 94.1592 37.6844 94.4874 38.0126C94.8156 38.3408 95 38.7859 95 39.25C95 40.23 94.2125 41 93.25 41ZM101.738 44.2725C101.23 41.07 99.7775 34.735 96.1025 30.6925C96.75 30.605 97.4675 30.5 98.4125 30.5C99.9 31.2 103.312 38.7775 103.75 43.625C103.312 43.8175 102.63 44.0625 101.738 44.2725Z" fill="white"/>
<path d="M5.525 24V9.8L6.8 11.075H0.4V6.5H16.45V11.075H10.05L11.325 9.8V24H5.525ZM23.7957 13H31.5957V17.25H23.7957V13ZM24.1957 19.55H32.9457V24H18.3957V6.5H32.6207V10.95H24.1957V19.55ZM35.3391 24V6.5H43.7641C45.3974 6.5 46.8057 6.76667 47.9891 7.3C49.1891 7.83333 50.1141 8.6 50.7641 9.6C51.4141 10.5833 51.7391 11.75 51.7391 13.1C51.7391 14.45 51.4141 15.6167 50.7641 16.6C50.1141 17.5833 49.1891 18.35 47.9891 18.9C46.8057 19.4333 45.3974 19.7 43.7641 19.7H38.6141L41.2391 17.175V24H35.3391ZM41.2391 17.825L38.6141 15.15H43.3891C44.2057 15.15 44.8057 14.9667 45.1891 14.6C45.5891 14.2333 45.7891 13.7333 45.7891 13.1C45.7891 12.4667 45.5891 11.9667 45.1891 11.6C44.8057 11.2333 44.2057 11.05 43.3891 11.05H38.6141L41.2391 8.375V17.825ZM53.5275 24V6.5H61.9525C63.5859 6.5 64.9942 6.76667 66.1775 7.3C67.3775 7.83333 68.3025 8.6 68.9525 9.6C69.6025 10.5833 69.9275 11.75 69.9275 13.1C69.9275 14.45 69.6025 15.6167 68.9525 16.6C68.3025 17.5833 67.3775 18.35 66.1775 18.9C64.9942 19.4333 63.5859 19.7 61.9525 19.7H56.8025L59.4275 17.175V24H53.5275ZM59.4275 17.825L56.8025 15.15H61.5775C62.3942 15.15 62.9942 14.9667 63.3775 14.6C63.7775 14.2333 63.9775 13.7333 63.9775 13.1C63.9775 12.4667 63.7775 11.9667 63.3775 11.6C62.9942 11.2333 62.3942 11.05 61.5775 11.05H56.8025L59.4275 8.375V17.825ZM71.716 24V6.5H77.516V15.6L83.541 6.5H89.091V24H83.291V14.925L77.291 24H71.716ZM96.1744 24V9.8L97.4494 11.075H91.0494V6.5H107.099V11.075H100.699L101.974 9.8V24H96.1744ZM117.701 24.4C116.284 24.4 114.968 24.175 113.751 23.725C112.551 23.275 111.509 22.6417 110.626 21.825C109.743 20.9917 109.051 20.0167 108.551 18.9C108.068 17.7833 107.826 16.5667 107.826 15.25C107.826 13.9167 108.068 12.7 108.551 11.6C109.051 10.4833 109.743 9.51667 110.626 8.7C111.509 7.86667 112.551 7.225 113.751 6.775C114.968 6.325 116.284 6.1 117.701 6.1C119.134 6.1 120.451 6.325 121.651 6.775C122.851 7.225 123.893 7.86667 124.776 8.7C125.659 9.51667 126.343 10.4833 126.826 11.6C127.326 12.7 127.576 13.9167 127.576 15.25C127.576 16.5667 127.326 17.7833 126.826 18.9C126.343 20.0167 125.659 20.9917 124.776 21.825C123.893 22.6417 122.851 23.275 121.651 23.725C120.451 24.175 119.134 24.4 117.701 24.4ZM117.701 19.625C118.251 19.625 118.759 19.525 119.226 19.325C119.709 19.125 120.126 18.8417 120.476 18.475C120.843 18.0917 121.126 17.6333 121.326 17.1C121.526 16.55 121.626 15.9333 121.626 15.25C121.626 14.5667 121.526 13.9583 121.326 13.425C121.126 12.875 120.843 12.4167 120.476 12.05C120.126 11.6667 119.709 11.375 119.226 11.175C118.759 10.975 118.251 10.875 117.701 10.875C117.151 10.875 116.634 10.975 116.151 11.175C115.684 11.375 115.268 11.6667 114.901 12.05C114.551 12.4167 114.276 12.875 114.076 13.425C113.876 13.9583 113.776 14.5667 113.776 15.25C113.776 15.9333 113.876 16.55 114.076 17.1C114.276 17.6333 114.551 18.0917 114.901 18.475C115.268 18.8417 115.684 19.125 116.151 19.325C116.634 19.525 117.151 19.625 117.701 19.625ZM129.699 24V6.5H138.124C139.758 6.5 141.166 6.76667 142.349 7.3C143.549 7.83333 144.474 8.6 145.124 9.6C145.774 10.5833 146.099 11.75 146.099 13.1C146.099 14.45 145.774 15.6167 145.124 16.6C144.474 17.5833 143.549 18.35 142.349 18.9C141.166 19.4333 139.758 19.7 138.124 19.7H132.974L135.599 17.175V24H129.699ZM135.599 17.825L132.974 15.15H137.749C138.566 15.15 139.166 14.9667 139.549 14.6C139.949 14.2333 140.149 13.7333 140.149 13.1C140.149 12.4667 139.949 11.9667 139.549 11.6C139.166 11.2333 138.566 11.05 137.749 11.05H132.974L135.599 8.375V17.825ZM147.888 24V6.5H153.688V15.6L159.713 6.5H165.263V24H159.463V14.925L153.463 24H147.888ZM177.921 24V18.675L179.296 19.85H175.271C173.655 19.85 172.255 19.5917 171.071 19.075C169.905 18.5417 169.005 17.7833 168.371 16.8C167.738 15.8167 167.421 14.6417 167.421 13.275C167.421 11.875 167.746 10.675 168.396 9.675C169.063 8.65833 170.005 7.875 171.221 7.325C172.438 6.775 173.871 6.5 175.521 6.5H183.721V24H177.921ZM167.496 24L171.896 17.625H177.771L173.671 24H167.496ZM177.921 16.825V9.625L179.296 11.05H175.621C174.871 11.05 174.305 11.225 173.921 11.575C173.555 11.925 173.371 12.4583 173.371 13.175C173.371 13.9083 173.563 14.4667 173.946 14.85C174.33 15.2167 174.888 15.4 175.621 15.4H179.296L177.921 16.825Z" fill="#576C70"/>
<path d="M0.156 38.448L0.984 36.492C1.336 36.636 1.696 36.748 2.064 36.828C2.44 36.908 2.8 36.96 3.144 36.984C3.488 37 3.792 36.984 4.056 36.936C4.328 36.888 4.544 36.808 4.704 36.696C4.864 36.584 4.944 36.436 4.944 36.252C4.944 36.06 4.864 35.928 4.704 35.856C4.544 35.784 4.348 35.748 4.116 35.748H1.848V33.708H3.876C4.116 33.708 4.296 33.664 4.416 33.576C4.544 33.48 4.608 33.356 4.608 33.204C4.608 33.036 4.536 32.904 4.392 32.808C4.256 32.712 4.068 32.648 3.828 32.616C3.596 32.576 3.332 32.572 3.036 32.604C2.74 32.628 2.432 32.688 2.112 32.784C1.8 32.872 1.496 32.988 1.2 33.132L0.372 31.068C0.964 30.796 1.584 30.612 2.232 30.516C2.888 30.412 3.524 30.392 4.14 30.456C4.764 30.512 5.324 30.644 5.82 30.852C6.324 31.06 6.724 31.336 7.02 31.68C7.316 32.016 7.464 32.416 7.464 32.88C7.464 33.28 7.356 33.64 7.14 33.96C6.924 34.272 6.628 34.516 6.252 34.692C5.884 34.868 5.464 34.956 4.992 34.956L5.052 34.392C5.604 34.392 6.084 34.492 6.492 34.692C6.908 34.884 7.228 35.148 7.452 35.484C7.684 35.82 7.8 36.204 7.8 36.636C7.8 37.036 7.692 37.396 7.476 37.716C7.26 38.028 6.96 38.296 6.576 38.52C6.2 38.736 5.76 38.9 5.256 39.012C4.76 39.124 4.224 39.18 3.648 39.18C3.08 39.188 2.496 39.128 1.896 39C1.304 38.88 0.724 38.696 0.156 38.448ZM14.3385 37.8V32.796H12.4065L12.3825 33.396C12.3665 33.836 12.3385 34.248 12.2985 34.632C12.2585 35.016 12.2025 35.368 12.1305 35.688C12.0665 36.008 11.9825 36.292 11.8785 36.54C11.7745 36.78 11.6465 36.98 11.4945 37.14L8.5065 36.804C8.7705 36.804 8.9865 36.716 9.1545 36.54C9.3305 36.356 9.4705 36.104 9.5745 35.784C9.6785 35.456 9.7545 35.072 9.8025 34.632C9.8585 34.184 9.8985 33.692 9.9225 33.156L10.0185 30.6H17.1225V37.8H14.3385ZM8.2665 40.644V36.804H18.2265V40.644H15.6345V39H10.8585V40.644H8.2665ZM23.4496 39.192C22.7696 39.192 22.1376 39.084 21.5536 38.868C20.9776 38.652 20.4776 38.348 20.0536 37.956C19.6296 37.556 19.2976 37.088 19.0576 36.552C18.8256 36.016 18.7096 35.432 18.7096 34.8C18.7096 34.16 18.8256 33.576 19.0576 33.048C19.2976 32.512 19.6296 32.048 20.0536 31.656C20.4776 31.256 20.9776 30.948 21.5536 30.732C22.1376 30.516 22.7696 30.408 23.4496 30.408C24.1376 30.408 24.7696 30.516 25.3456 30.732C25.9216 30.948 26.4216 31.256 26.8456 31.656C27.2696 32.048 27.5976 32.512 27.8296 33.048C28.0696 33.576 28.1896 34.16 28.1896 34.8C28.1896 35.432 28.0696 36.016 27.8296 36.552C27.5976 37.088 27.2696 37.556 26.8456 37.956C26.4216 38.348 25.9216 38.652 25.3456 38.868C24.7696 39.084 24.1376 39.192 23.4496 39.192ZM23.4496 36.9C23.7136 36.9 23.9576 36.852 24.1816 36.756C24.4136 36.66 24.6136 36.524 24.7816 36.348C24.9576 36.164 25.0936 35.944 25.1896 35.688C25.2856 35.424 25.3336 35.128 25.3336 34.8C25.3336 34.472 25.2856 34.18 25.1896 33.924C25.0936 33.66 24.9576 33.44 24.7816 33.264C24.6136 33.08 24.4136 32.94 24.1816 32.844C23.9576 32.748 23.7136 32.7 23.4496 32.7C23.1856 32.7 22.9376 32.748 22.7056 32.844C22.4816 32.94 22.2816 33.08 22.1056 33.264C21.9376 33.44 21.8056 33.66 21.7096 33.924C21.6136 34.18 21.5656 34.472 21.5656 34.8C21.5656 35.128 21.6136 35.424 21.7096 35.688C21.8056 35.944 21.9376 36.164 22.1056 36.348C22.2816 36.524 22.4816 36.66 22.7056 36.756C22.9376 36.852 23.1856 36.9 23.4496 36.9ZM29.2088 39V30.6H33.2528C34.0368 30.6 34.7128 30.728 35.2808 30.984C35.8568 31.24 36.3008 31.608 36.6128 32.088C36.9248 32.56 37.0808 33.12 37.0808 33.768C37.0808 34.416 36.9248 34.976 36.6128 35.448C36.3008 35.92 35.8568 36.288 35.2808 36.552C34.7128 36.808 34.0368 36.936 33.2528 36.936H30.7808L32.0408 35.724V39H29.2088ZM32.0408 36.036L30.7808 34.752H33.0728C33.4648 34.752 33.7528 34.664 33.9368 34.488C34.1288 34.312 34.2248 34.072 34.2248 33.768C34.2248 33.464 34.1288 33.224 33.9368 33.048C33.7528 32.872 33.4648 32.784 33.0728 32.784H30.7808L32.0408 31.5V36.036ZM42.3285 39.192C41.6485 39.192 41.0165 39.084 40.4325 38.868C39.8565 38.652 39.3565 38.348 38.9325 37.956C38.5085 37.556 38.1765 37.088 37.9365 36.552C37.7045 36.016 37.5885 35.432 37.5885 34.8C37.5885 34.16 37.7045 33.576 37.9365 33.048C38.1765 32.512 38.5085 32.048 38.9325 31.656C39.3565 31.256 39.8565 30.948 40.4325 30.732C41.0165 30.516 41.6485 30.408 42.3285 30.408C43.0165 30.408 43.6485 30.516 44.2245 30.732C44.8005 30.948 45.3005 31.256 45.7245 31.656C46.1485 32.048 46.4765 32.512 46.7085 33.048C46.9485 33.576 47.0685 34.16 47.0685 34.8C47.0685 35.432 46.9485 36.016 46.7085 36.552C46.4765 37.088 46.1485 37.556 45.7245 37.956C45.3005 38.348 44.8005 38.652 44.2245 38.868C43.6485 39.084 43.0165 39.192 42.3285 39.192ZM42.3285 36.9C42.5925 36.9 42.8365 36.852 43.0605 36.756C43.2925 36.66 43.4925 36.524 43.6605 36.348C43.8365 36.164 43.9725 35.944 44.0685 35.688C44.1645 35.424 44.2125 35.128 44.2125 34.8C44.2125 34.472 44.1645 34.18 44.0685 33.924C43.9725 33.66 43.8365 33.44 43.6605 33.264C43.4925 33.08 43.2925 32.94 43.0605 32.844C42.8365 32.748 42.5925 32.7 42.3285 32.7C42.0645 32.7 41.8165 32.748 41.5845 32.844C41.3605 32.94 41.1605 33.08 40.9845 33.264C40.8165 33.44 40.6845 33.66 40.5885 33.924C40.4925 34.18 40.4445 34.472 40.4445 34.8C40.4445 35.128 40.4925 35.424 40.5885 35.688C40.6845 35.944 40.8165 36.164 40.9845 36.348C41.1605 36.524 41.3605 36.66 41.5845 36.756C41.8165 36.852 42.0645 36.9 42.3285 36.9ZM48.0878 39V30.6H52.3478C53.3878 30.6 54.1918 30.792 54.7598 31.176C55.3358 31.56 55.6238 32.1 55.6238 32.796C55.6238 33.476 55.3598 34.016 54.8318 34.416C54.3038 34.808 53.5918 35.004 52.6958 35.004L52.9358 34.356C53.8878 34.356 54.6358 34.544 55.1798 34.92C55.7238 35.296 55.9958 35.844 55.9958 36.564C55.9958 37.308 55.6998 37.9 55.1078 38.34C54.5158 38.78 53.6718 39 52.5758 39H48.0878ZM50.8717 37.02H52.4438C52.6758 37.02 52.8478 36.964 52.9598 36.852C53.0798 36.732 53.1398 36.564 53.1398 36.348C53.1398 36.132 53.0798 35.972 52.9598 35.868C52.8478 35.756 52.6758 35.7 52.4438 35.7H50.8717V37.02ZM50.8717 33.828H52.0718C52.3118 33.828 52.4878 33.776 52.5998 33.672C52.7118 33.568 52.7678 33.416 52.7678 33.216C52.7678 33.008 52.7118 32.852 52.5998 32.748C52.4878 32.636 52.3118 32.58 52.0718 32.58H50.8717V33.828ZM61.5297 33.18C62.5537 33.18 63.3537 33.412 63.9297 33.876C64.5137 34.332 64.8057 35.024 64.8057 35.952C64.8057 36.952 64.4777 37.712 63.8217 38.232C63.1657 38.744 62.2817 39 61.1697 39H57.0057V30.6H59.7897V33.18H61.5297ZM60.9777 37.02C61.2577 37.02 61.4897 36.932 61.6737 36.756C61.8657 36.572 61.9617 36.32 61.9617 36C61.9617 35.68 61.8657 35.46 61.6737 35.34C61.4897 35.22 61.2577 35.16 60.9777 35.16H59.7897V37.02H60.9777ZM69.91 39V36.444L70.57 37.008H68.638C67.862 37.008 67.19 36.884 66.622 36.636C66.062 36.38 65.63 36.016 65.326 35.544C65.022 35.072 64.87 34.508 64.87 33.852C64.87 33.18 65.026 32.604 65.338 32.124C65.658 31.636 66.11 31.26 66.694 30.996C67.278 30.732 67.966 30.6 68.758 30.6H72.694V39H69.91ZM64.906 39L67.018 35.94H69.838L67.87 39H64.906ZM69.91 35.556V32.1L70.57 32.784H68.806C68.446 32.784 68.174 32.868 67.99 33.036C67.814 33.204 67.726 33.46 67.726 33.804C67.726 34.156 67.818 34.424 68.002 34.608C68.186 34.784 68.454 34.872 68.806 34.872H70.57L69.91 35.556Z" fill="#576C70"/>
<path d="M113.356 39L111.556 35.064L113.932 33.744L116.608 39H113.356ZM110.416 35.964V33.732H113.212V35.964H110.416ZM114.088 35.1L111.472 34.836L113.536 30.6H116.488L114.088 35.1ZM106.324 39H103.072L105.76 33.744L108.136 35.064L106.324 39ZM111.232 39H108.472V30.6H111.232V39ZM109.288 35.964H106.468V33.732H109.288V35.964ZM105.604 35.1L103.192 30.6H106.144L108.172 34.836L105.604 35.1ZM117.174 39V30.6H119.958V34.968L122.85 30.6H125.514V39H122.73V34.644L119.85 39H117.174ZM127.006 39V30.6H131.266C132.306 30.6 133.11 30.792 133.678 31.176C134.254 31.56 134.542 32.1 134.542 32.796C134.542 33.476 134.278 34.016 133.75 34.416C133.222 34.808 132.51 35.004 131.614 35.004L131.854 34.356C132.806 34.356 133.554 34.544 134.098 34.92C134.642 35.296 134.914 35.844 134.914 36.564C134.914 37.308 134.618 37.9 134.026 38.34C133.434 38.78 132.59 39 131.494 39H127.006ZM129.79 37.02H131.362C131.594 37.02 131.766 36.964 131.878 36.852C131.998 36.732 132.058 36.564 132.058 36.348C132.058 36.132 131.998 35.972 131.878 35.868C131.766 35.756 131.594 35.7 131.362 35.7H129.79V37.02ZM129.79 33.828H130.99C131.23 33.828 131.406 33.776 131.518 33.672C131.63 33.568 131.686 33.416 131.686 33.216C131.686 33.008 131.63 32.852 131.518 32.748C131.406 32.636 131.23 32.58 130.99 32.58H129.79V33.828ZM140.196 39.192C139.516 39.192 138.884 39.084 138.3 38.868C137.724 38.652 137.224 38.348 136.8 37.956C136.376 37.556 136.044 37.088 135.804 36.552C135.572 36.016 135.456 35.432 135.456 34.8C135.456 34.16 135.572 33.576 135.804 33.048C136.044 32.512 136.376 32.048 136.8 31.656C137.224 31.256 137.724 30.948 138.3 30.732C138.884 30.516 139.516 30.408 140.196 30.408C140.884 30.408 141.516 30.516 142.092 30.732C142.668 30.948 143.168 31.256 143.592 31.656C144.016 32.048 144.344 32.512 144.576 33.048C144.816 33.576 144.936 34.16 144.936 34.8C144.936 35.432 144.816 36.016 144.576 36.552C144.344 37.088 144.016 37.556 143.592 37.956C143.168 38.348 142.668 38.652 142.092 38.868C141.516 39.084 140.884 39.192 140.196 39.192ZM140.196 36.9C140.46 36.9 140.704 36.852 140.928 36.756C141.16 36.66 141.36 36.524 141.528 36.348C141.704 36.164 141.84 35.944 141.936 35.688C142.032 35.424 142.08 35.128 142.08 34.8C142.08 34.472 142.032 34.18 141.936 33.924C141.84 33.66 141.704 33.44 141.528 33.264C141.36 33.08 141.16 32.94 140.928 32.844C140.704 32.748 140.46 32.7 140.196 32.7C139.932 32.7 139.684 32.748 139.452 32.844C139.228 32.94 139.028 33.08 138.852 33.264C138.684 33.44 138.552 33.66 138.456 33.924C138.36 34.18 138.312 34.472 138.312 34.8C138.312 35.128 138.36 35.424 138.456 35.688C138.552 35.944 138.684 36.164 138.852 36.348C139.028 36.524 139.228 36.66 139.452 36.756C139.684 36.852 139.932 36.9 140.196 36.9ZM147.746 39V32.184L148.358 32.796H145.286V30.6H152.99V32.796H149.918L150.53 32.184V39H147.746ZM159.372 30.6H162.204V39H159.372V30.6ZM156.756 39H153.924V30.6H156.756V39ZM159.564 35.904H156.564V33.576H159.564V35.904ZM168.221 33.18C169.245 33.18 170.045 33.412 170.621 33.876C171.205 34.332 171.497 35.024 171.497 35.952C171.497 36.952 171.169 37.712 170.513 38.232C169.857 38.744 168.973 39 167.861 39H163.697V30.6H166.481V33.18H168.221ZM167.669 37.02C167.949 37.02 168.181 36.932 168.365 36.756C168.557 36.572 168.653 36.32 168.653 36C168.653 35.68 168.557 35.46 168.365 35.34C168.181 35.22 167.949 35.16 167.669 35.16H166.481V37.02H167.669ZM172.265 39V30.6H175.049V39H172.265ZM176.013 30.588H179.253L180.477 32.568L181.701 30.588H184.977L182.253 34.596L185.229 39H181.893L180.477 36.828L179.085 39H175.833L178.785 34.728L176.013 30.588Z" fill="#576C70"/>
</svg>
