<svg width="186.000000" height="62.000031" viewBox="0 0 186 62" fill="none" xmlns="http://www.w3.org/2000/svg" xmlns:xlink="http://www.w3.org/1999/xlink">
	<desc>
			Created with Pixso.
	</desc>
	<defs>
		<clipPath id="clip11_1">
			<rect id="mdi:dog" width="42.000000" height="42.000000" transform="translate(67.000000 20.000031)" fill="white" fill-opacity="0"/>
		</clipPath>
	</defs>
	<rect id="Component 1" width="186.000000" height="62.000031" fill="#FFFFFF" fill-opacity="0"/>
	<rect id="mdi:dog" width="42.000000" height="42.000000" transform="translate(67.000000 20.000031)" fill="#FFFFFF" fill-opacity="0"/>
	<g clip-path="url(#clip11_1)">
		<path id="Vector" d="M98.5 27C95.5 27 93.68 27.57 92.63 28.06C91.29 27.4 89.75 27 88 27C86.25 27 84.71 27.4 83.36 28.06C82.31 27.57 80.49 27 77.5 27C72.25 27 68.75 41 68.75 44.5C68.75 45.95 71.06 47.28 74.24 47.82C75.36 51.74 80.64 54.73 87.12 55L87.12 47.51C86.09 46.86 84.5 45.69 84.5 44.5C84.5 42.75 88 42.75 88 42.75C88 42.75 91.5 42.75 91.5 44.5C91.5 45.69 89.9 46.86 88.87 47.51L88.87 55C95.35 54.73 100.63 51.74 101.75 47.82C104.94 47.28 107.25 45.95 107.25 44.5C107.25 41 103.75 27 98.5 27ZM74.26 44.27C73.38 44.06 72.7 43.81 72.25 43.62C72.68 38.77 76.1 31.2 77.58 30.5C78.53 30.5 79.25 30.6 79.89 30.69C76.22 34.73 74.76 41.07 74.26 44.27ZM82.75 41C82.28 41 81.84 40.81 81.51 40.48C81.18 40.15 81 39.71 81 39.25C81 38.3 81.78 37.5 82.75 37.5C83.21 37.5 83.65 37.68 83.98 38.01C84.31 38.34 84.5 38.78 84.5 39.25C84.5 40.23 83.71 41 82.75 41ZM93.25 41C92.78 41 92.34 40.81 92.01 40.48C91.68 40.15 91.5 39.71 91.5 39.25C91.5 38.3 92.28 37.5 93.25 37.5C93.71 37.5 94.15 37.68 94.48 38.01C94.81 38.34 95 38.78 95 39.25C95 40.23 94.21 41 93.25 41ZM101.73 44.27C101.23 41.07 99.77 34.73 96.1 30.69C96.75 30.6 97.46 30.5 98.41 30.5C99.89 31.2 103.31 38.77 103.75 43.62C103.31 43.81 102.63 44.06 101.73 44.27Z" fill="#99B5B9" fill-opacity="1.000000" fill-rule="nonzero"/>
	</g>
	<path id="ТЕРРИТОРИЯ" d="M112.81 23.34Q114.98 24.4 117.67 24.4Q120.38 24.4 122.55 23.32Q122.65 23.27 122.74 23.23Q124.17 22.48 125.2 21.37Q125.8 20.73 126.27 19.96Q126.61 19.4 126.87 18.79Q127.55 17.16 127.55 15.24Q127.55 13.31 126.85 11.67Q126.61 11.08 126.27 10.53Q125.8 9.76 125.19 9.11Q124.16 8.01 122.74 7.27Q122.63 7.21 122.52 7.16Q120.36 6.09 117.67 6.09Q115 6.09 112.84 7.14Q112.72 7.21 112.59 7.27Q111.19 8 110.17 9.08Q109.55 9.74 109.07 10.53Q108.73 11.08 108.48 11.67Q107.79 13.31 107.79 15.24Q107.79 17.16 108.47 18.79Q108.73 19.4 109.07 19.96Q109.55 20.74 110.16 21.39Q111.18 22.49 112.59 23.23Q112.7 23.28 112.81 23.34ZM11.32 11.07L16.44 11.07L16.44 6.5L0.4 6.5L0.4 11.07L5.52 11.07L5.52 24L11.32 24L11.32 11.07ZM32.94 24L32.94 19.55L24.19 19.55L24.19 17.24L31.59 17.24L31.59 13L24.19 13L24.19 10.95L32.62 10.95L32.62 6.5L18.39 6.5L18.39 24L32.94 24ZM47.99 7.3Q46.19 6.5 43.77 6.5L35.34 6.5L35.34 24L41.24 24L41.24 19.69L43.77 19.69Q46.19 19.69 47.99 18.89Q49.43 18.25 50.34 17.17Q50.57 16.9 50.76 16.6Q50.93 16.35 51.06 16.08Q51.74 14.76 51.74 13.09Q51.74 11.42 51.05 10.09Q50.92 9.84 50.76 9.6Q50.56 9.28 50.32 9Q49.41 7.93 47.99 7.3ZM66.17 7.3Q64.37 6.5 61.94 6.5L53.51 6.5L53.51 24L59.42 24L59.42 19.69L61.94 19.69Q64.37 19.69 66.17 18.89Q67.61 18.25 68.52 17.17Q68.74 16.9 68.94 16.6Q69.1 16.35 69.24 16.08Q69.91 14.76 69.91 13.09Q69.91 11.42 69.23 10.09Q69.1 9.84 68.94 9.6Q68.73 9.28 68.49 9Q67.59 7.93 66.17 7.3ZM77.49 6.5L71.7 6.5L71.7 24L77.27 24L83.27 14.92L83.27 24L89.07 24L89.07 6.5L83.52 6.5L77.49 15.6L77.49 6.5ZM101.94 11.07L107.07 11.07L107.07 6.5L91.02 6.5L91.02 11.07L96.14 11.07L96.14 24L101.94 24L101.94 11.07ZM142.32 7.3Q140.52 6.5 138.09 6.5L129.66 6.5L129.66 24L135.57 24L135.57 19.69L138.09 19.69Q140.52 19.69 142.32 18.89Q143.76 18.25 144.67 17.17Q144.89 16.9 145.09 16.6Q145.25 16.35 145.39 16.08Q146.06 14.76 146.06 13.09Q146.06 11.42 145.38 10.09Q145.25 9.84 145.09 9.6Q144.88 9.28 144.64 9Q143.74 7.93 142.32 7.3ZM153.64 6.5L147.85 6.5L147.85 24L153.42 24L159.42 14.92L159.42 24L165.22 24L165.22 6.5L159.67 6.5L153.64 15.6L153.64 6.5ZM183.67 24L183.67 6.5L175.47 6.5Q173 6.5 171.17 7.32Q169.72 7.98 168.8 9.07Q168.56 9.36 168.36 9.67Q168.25 9.84 168.15 10.01Q167.37 11.42 167.37 13.27Q167.37 15.18 168.2 16.6Q168.24 16.67 168.28 16.73Q168.5 17.08 168.76 17.39Q169.6 18.39 170.9 19L167.45 24L173.62 24L176.3 19.84L177.87 19.84L177.87 24L183.67 24ZM119.11 19.35Q118.44 19.62 117.67 19.62Q116.87 19.62 116.19 19.34Q115.93 19.23 115.68 19.08Q115.48 18.96 115.29 18.81Q114.68 18.32 114.27 17.56Q113.75 16.57 113.75 15.24Q113.75 13.92 114.27 12.94Q114.68 12.17 115.29 11.68Q115.48 11.53 115.68 11.41Q115.93 11.26 116.19 11.15Q116.87 10.87 117.67 10.87Q118.44 10.87 119.11 11.14Q119.39 11.25 119.65 11.41Q119.87 11.54 120.07 11.7Q120.67 12.19 121.07 12.94Q121.59 13.92 121.59 15.24Q121.59 16.57 121.07 17.56Q120.67 18.3 120.07 18.79Q119.87 18.95 119.65 19.08Q119.39 19.24 119.11 19.35ZM45.19 14.61Q44.59 15.14 43.39 15.14L41.24 15.14L41.24 11.04L43.39 11.04Q44.59 11.04 45.19 11.58Q45.33 11.7 45.44 11.85Q45.79 12.34 45.79 13.09Q45.79 13.84 45.44 14.34Q45.33 14.48 45.19 14.61ZM63.37 14.61Q62.77 15.14 61.56 15.14L59.42 15.14L59.42 11.04L61.56 11.04Q62.77 11.04 63.37 11.58Q63.51 11.7 63.61 11.85Q63.97 12.34 63.97 13.09Q63.97 13.84 63.61 14.34Q63.51 14.48 63.37 14.61ZM139.52 14.61Q138.92 15.14 137.72 15.14L135.57 15.14L135.57 11.04L137.72 11.04Q138.92 11.04 139.52 11.58Q139.66 11.7 139.76 11.85Q140.12 12.34 140.12 13.09Q140.12 13.84 139.76 14.34Q139.66 14.48 139.52 14.61ZM173.82 11.64Q174.38 11.04 175.57 11.04L177.87 11.04L177.87 15.4L175.57 15.4Q174.43 15.4 173.87 14.83Q173.32 14.27 173.32 13.17Q173.32 12.17 173.82 11.64Z" fill="#576C70" fill-opacity="1.000000" fill-rule="evenodd"/>
	<path id="ЗДОРОВЬЯ" d="M7.29 35.27Q6.93 34.86 6.37 34.63Q6.79 34.4 7.06 34.06Q7.12 33.98 7.17 33.9Q7.27 33.73 7.34 33.55Q7.46 33.24 7.46 32.87Q7.46 32.54 7.35 32.25Q7.22 31.86 6.9 31.54Q6.34 30.97 5.41 30.67Q4.48 30.37 3.39 30.37Q2.01 30.37 0.79 30.83Q0.58 30.91 0.37 31L1.2 33.1Q1.22 33.09 1.24 33.08Q1.75 32.83 2.31 32.7Q2.9 32.55 3.4 32.55Q3.94 32.55 4.27 32.72Q4.49 32.83 4.56 33Q4.6 33.09 4.6 33.2Q4.6 33.33 4.55 33.43Q4.5 33.51 4.42 33.57Q4.23 33.7 3.87 33.7L1.84 33.7L1.84 35.74L4.11 35.74Q4.72 35.74 4.88 36.01Q4.94 36.11 4.94 36.25Q4.94 36.36 4.9 36.46Q4.81 36.68 4.51 36.81Q4.09 37 3.4 37Q2.84 37 2.2 36.88Q1.57 36.75 0.98 36.51L0.15 38.47Q0.84 38.77 1.55 38.95Q2.57 39.2 3.64 39.2Q4.79 39.2 5.73 38.9Q6.68 38.59 7.23 38Q7.54 37.69 7.67 37.32Q7.79 37 7.79 36.63Q7.79 36.24 7.66 35.89Q7.57 35.65 7.42 35.43Q7.35 35.35 7.29 35.27ZM21.11 38.68Q22.15 39.19 23.44 39.19Q24.74 39.19 25.79 38.67Q25.83 38.65 25.88 38.63Q26.56 38.27 27.06 37.73Q27.35 37.43 27.57 37.06Q27.74 36.79 27.86 36.5Q28.18 35.71 28.18 34.79Q28.18 33.87 27.85 33.08Q27.73 32.8 27.57 32.53Q27.34 32.16 27.05 31.85Q26.56 31.32 25.88 30.97Q25.82 30.94 25.77 30.91Q24.73 30.4 23.44 30.4Q22.16 30.4 21.13 30.91Q21.07 30.94 21.01 30.97Q20.33 31.32 19.84 31.84Q19.55 32.15 19.31 32.53Q19.15 32.8 19.03 33.08Q18.7 33.87 18.7 34.79Q18.7 35.71 19.03 36.5Q19.15 36.79 19.31 37.06Q19.54 37.43 19.84 37.75Q20.33 38.27 21.01 38.63Q21.06 38.65 21.11 38.68ZM39.98 38.68Q41.03 39.19 42.32 39.19Q43.62 39.19 44.66 38.67Q44.71 38.65 44.75 38.63Q45.44 38.27 45.93 37.73Q46.22 37.43 46.45 37.06Q46.61 36.79 46.73 36.5Q47.06 35.71 47.06 34.79Q47.06 33.87 46.73 33.08Q46.61 32.8 46.45 32.53Q46.22 32.16 45.93 31.85Q45.43 31.32 44.75 30.97Q44.7 30.94 44.65 30.91Q43.61 30.4 42.32 30.4Q41.04 30.4 40 30.91Q39.94 30.94 39.88 30.97Q39.21 31.32 38.72 31.84Q38.42 32.15 38.19 32.53Q38.03 32.8 37.91 33.08Q37.58 33.87 37.58 34.79Q37.58 35.71 37.9 36.5Q38.03 36.79 38.19 37.06Q38.42 37.43 38.71 37.75Q39.21 38.27 39.88 38.63Q39.93 38.65 39.98 38.68ZM18.22 40.64L18.22 36.8L17.12 36.8L17.12 30.6L10.02 30.6L9.92 33.15Q9.83 34.95 9.53 35.87Q9.32 36.52 8.91 36.71Q8.73 36.8 8.5 36.8L8.26 36.8L8.26 40.64L10.85 40.64L10.85 39L15.63 39L15.63 40.64L18.22 40.64ZM35.27 30.98Q34.41 30.6 33.25 30.6L29.2 30.6L29.2 39L32.03 39L32.03 36.93L33.25 36.93Q34.41 36.93 35.27 36.55Q35.96 36.24 36.4 35.72Q36.51 35.59 36.6 35.44Q36.68 35.32 36.75 35.2Q37.07 34.56 37.07 33.76Q37.07 32.96 36.74 32.32Q36.68 32.2 36.6 32.08Q36.51 31.93 36.39 31.8Q35.96 31.28 35.27 30.98ZM55.61 35.34Q55.24 34.84 54.54 34.59Q55 34.33 55.27 33.94Q55.3 33.9 55.33 33.85Q55.37 33.79 55.4 33.72Q55.61 33.31 55.61 32.79Q55.61 32.26 55.39 31.85Q55.18 31.45 54.76 31.17Q53.9 30.6 52.34 30.6L48.08 30.6L48.08 39L52.57 39Q54.2 39 55.09 38.34Q55.52 38.03 55.74 37.61Q55.99 37.15 55.99 36.56Q55.99 35.95 55.72 35.49Q55.67 35.41 55.61 35.34ZM63.94 33.88Q63.09 33.17 61.52 33.17L59.78 33.17L59.78 30.6L57 30.6L57 39L61.16 39Q62.85 39 63.82 38.21Q64.1 37.98 64.3 37.7Q64.79 37 64.79 35.95Q64.79 34.88 64.28 34.22Q64.13 34.03 63.94 33.88ZM72.68 39L72.68 30.6L68.74 30.6Q67.56 30.6 66.68 30.99Q65.98 31.31 65.54 31.83Q65.43 31.97 65.33 32.12Q65.28 32.2 65.23 32.28Q64.85 32.96 64.85 33.85Q64.85 34.76 65.25 35.45Q65.27 35.48 65.29 35.51Q65.4 35.68 65.52 35.83Q65.93 36.3 66.55 36.6L64.89 39L67.85 39L69.14 37L69.9 37L69.9 39L72.68 39ZM52.06 33.82L50.86 33.82L50.86 32.58L52.06 32.58Q52.44 32.58 52.61 32.76Q52.76 32.92 52.76 33.21Q52.76 33.48 52.63 33.63Q52.45 33.82 52.06 33.82ZM24.13 36.77Q23.81 36.89 23.44 36.89Q23.06 36.89 22.73 36.76Q22.61 36.71 22.49 36.64Q22.39 36.58 22.3 36.51Q22.01 36.27 21.81 35.9Q21.56 35.43 21.56 34.79Q21.56 34.16 21.81 33.69Q22.01 33.32 22.3 33.08Q22.39 33.01 22.49 32.95Q22.61 32.88 22.73 32.83Q23.06 32.7 23.44 32.7Q23.81 32.7 24.13 32.82Q24.27 32.88 24.39 32.95Q24.5 33.02 24.6 33.09Q24.88 33.33 25.07 33.69Q25.33 34.16 25.33 34.79Q25.33 35.43 25.07 35.9Q24.88 36.26 24.6 36.5Q24.5 36.57 24.39 36.64Q24.27 36.71 24.13 36.77ZM43.01 36.77Q42.69 36.89 42.32 36.89Q41.94 36.89 41.61 36.76Q41.48 36.71 41.36 36.64Q41.27 36.58 41.18 36.51Q40.88 36.27 40.69 35.9Q40.43 35.43 40.43 34.79Q40.43 34.16 40.69 33.69Q40.88 33.32 41.18 33.08Q41.27 33.01 41.36 32.95Q41.48 32.88 41.61 32.83Q41.94 32.7 42.32 32.7Q42.69 32.7 43.01 32.82Q43.14 32.88 43.27 32.95Q43.38 33.02 43.47 33.09Q43.76 33.33 43.95 33.69Q44.2 34.16 44.2 34.79Q44.2 35.43 43.95 35.9Q43.76 36.26 43.47 36.5Q43.38 36.57 43.27 36.64Q43.14 36.71 43.01 36.77ZM33.93 34.49Q33.64 34.75 33.06 34.75L32.03 34.75L32.03 32.78L33.06 32.78Q33.64 32.78 33.93 33.04Q34 33.1 34.05 33.17Q34.22 33.4 34.22 33.76Q34.22 34.12 34.05 34.36Q34 34.43 33.93 34.49ZM67.95 33.06Q68.22 32.78 68.79 32.78L69.9 32.78L69.9 34.87L68.79 34.87Q68.25 34.87 67.98 34.59Q67.71 34.33 67.71 33.8Q67.71 33.32 67.95 33.06ZM12.19 35.45Q12.33 34.6 12.38 33.39L12.4 32.79L14.33 32.79L14.33 36.8L11.74 36.8Q12.04 36.29 12.19 35.45ZM61.49 36.89Q61.27 37.01 60.97 37.01L59.78 37.01L59.78 35.15L60.97 35.15Q61.54 35.15 61.78 35.44Q61.95 35.64 61.95 36Q61.95 36.39 61.76 36.65Q61.72 36.7 61.67 36.75Q61.59 36.83 61.49 36.89ZM52.97 36.84Q52.79 37.01 52.44 37.01L50.86 37.01L50.86 35.7L52.44 35.7Q52.81 35.7 52.98 35.88Q53.13 36.04 53.13 36.34Q53.13 36.67 52.97 36.84Z" fill="#576C70" fill-opacity="1.000000" fill-rule="evenodd"/>
	<path id="ЖИВОТНЫХ" d="M137.86 38.68Q138.9 39.19 140.2 39.19Q141.5 39.19 142.54 38.67Q142.58 38.65 142.63 38.63Q143.31 38.27 143.81 37.73Q144.1 37.43 144.32 37.06Q144.49 36.79 144.61 36.5Q144.94 35.71 144.94 34.79Q144.94 33.87 144.6 33.08Q144.48 32.8 144.32 32.53Q144.1 32.16 143.8 31.85Q143.31 31.32 142.63 30.97Q142.58 30.94 142.52 30.91Q141.48 30.4 140.2 30.4Q138.91 30.4 137.88 30.91Q137.82 30.94 137.76 30.97Q137.09 31.32 136.6 31.84Q136.3 32.15 136.07 32.53Q135.91 32.8 135.79 33.08Q135.45 33.87 135.45 34.79Q135.45 35.71 135.78 36.5Q135.9 36.79 136.07 37.06Q136.3 37.43 136.59 37.75Q137.08 38.27 137.76 38.63Q137.81 38.65 137.86 38.68ZM180.47 32.56L179.24 30.58L176 30.58L178.78 34.72L175.82 39L179.07 39L180.47 36.82L181.88 39L185.22 39L182.24 34.59L184.97 30.58L181.69 30.58L180.47 32.56ZM111.23 35.96L111.96 35.96L113.35 39L116.6 39L114.36 34.58L116.48 30.6L113.53 30.6L112.01 33.73L111.23 33.73L111.23 30.6L108.47 30.6L108.47 33.73L107.64 33.73L106.14 30.6L103.19 30.6L105.32 34.58L103.07 39L106.32 39L107.71 35.96L108.47 35.96L108.47 39L111.23 39L111.23 35.96ZM119.96 30.6L117.18 30.6L117.18 39L119.85 39L122.73 34.64L122.73 39L125.52 39L125.52 30.6L122.85 30.6L119.96 34.96L119.96 30.6ZM134.54 35.34Q134.17 34.84 133.46 34.59Q133.93 34.33 134.2 33.94Q134.23 33.9 134.26 33.85Q134.3 33.79 134.33 33.72Q134.54 33.31 134.54 32.79Q134.54 32.26 134.32 31.85Q134.1 31.45 133.68 31.17Q132.83 30.6 131.27 30.6L127.01 30.6L127.01 39L131.5 39Q133.13 39 134.02 38.34Q134.45 38.03 134.67 37.61Q134.91 37.15 134.91 36.56Q134.91 35.95 134.64 35.49Q134.6 35.41 134.54 35.34ZM150.53 32.79L152.99 32.79L152.99 30.6L145.28 30.6L145.28 32.79L147.74 32.79L147.74 39L150.53 39L150.53 32.79ZM162.2 39L162.2 30.6L159.37 30.6L159.37 33.57L156.75 33.57L156.75 30.6L153.92 30.6L153.92 39L156.75 39L156.75 35.9L159.37 35.9L159.37 39L162.2 39ZM170.64 33.88Q169.79 33.17 168.22 33.17L166.47 33.17L166.47 30.6L163.69 30.6L163.69 39L167.85 39Q169.55 39 170.52 38.21Q170.8 37.98 171 37.7Q171.49 37 171.49 35.95Q171.49 34.88 170.97 34.22Q170.83 34.03 170.64 33.88ZM175.04 30.6L172.26 30.6L172.26 39L175.04 39L175.04 30.6ZM130.99 33.82L129.79 33.82L129.79 32.58L130.99 32.58Q131.37 32.58 131.54 32.76Q131.69 32.92 131.69 33.21Q131.69 33.48 131.55 33.63Q131.38 33.82 130.99 33.82ZM140.89 36.77Q140.57 36.89 140.2 36.89Q139.81 36.89 139.49 36.76Q139.36 36.71 139.24 36.64Q139.14 36.58 139.06 36.51Q138.76 36.27 138.56 35.9Q138.31 35.43 138.31 34.79Q138.31 34.16 138.56 33.69Q138.76 33.32 139.06 33.08Q139.14 33.01 139.24 32.95Q139.36 32.88 139.49 32.83Q139.81 32.7 140.2 32.7Q140.57 32.7 140.89 32.82Q141.02 32.88 141.15 32.95Q141.25 33.02 141.35 33.09Q141.64 33.33 141.83 33.69Q142.08 34.16 142.08 34.79Q142.08 35.43 141.83 35.9Q141.64 36.26 141.35 36.5Q141.25 36.57 141.15 36.64Q141.02 36.71 140.89 36.77ZM168.19 36.89Q167.96 37.01 167.66 37.01L166.47 37.01L166.47 35.15L167.66 35.15Q168.23 35.15 168.47 35.44Q168.65 35.64 168.65 36Q168.65 36.39 168.46 36.65Q168.42 36.7 168.37 36.75Q168.29 36.83 168.19 36.89ZM131.9 36.84Q131.72 37.01 131.36 37.01L129.79 37.01L129.79 35.7L131.36 35.7Q131.74 35.7 131.91 35.88Q132.06 36.04 132.06 36.34Q132.06 36.67 131.9 36.84Z" fill="#576C70" fill-opacity="1.000000" fill-rule="evenodd"/>
</svg>
