<svg width="14.001953" height="14.000000" viewBox="0 0 14.002 14" fill="none" xmlns="http://www.w3.org/2000/svg" xmlns:xlink="http://www.w3.org/1999/xlink">
	<desc>
			Created with Pixso.
	</desc>
	<defs/>
	<rect id="Component 2" width="14.000000" height="14.000000" transform="translate(0.000977 0.000000)" fill="#FFFFFF" fill-opacity="0"/>
	<path id="Ellipse 1" d="M7 14C5.46 14 4.04 13.5 2.88 12.66C1.64 11.75 0.78 10.52 0.34 9.16C-0.14 7.7 -0.1 6.19 0.34 4.83C0.81 3.37 1.72 2.17 2.88 1.33C4.12 0.43 5.57 -0.01 7 0L7 2.96C6.11 2.96 5.29 3.25 4.63 3.73C3.91 4.25 3.41 4.97 3.16 5.75C2.89 6.59 2.91 7.46 3.16 8.24C3.43 9.08 3.96 9.77 4.63 10.26C5.34 10.78 6.17 11.03 7 11.03L7 14Z" fill="#576C70" fill-opacity="1.000000" fill-rule="evenodd"/>
	<path id="Ellipse 2" d="M7 14C8.53 14 9.95 13.5 11.11 12.66C12.35 11.75 13.21 10.52 13.65 9.16C14.13 7.7 14.1 6.19 13.65 4.83C13.18 3.37 12.27 2.17 11.11 1.33C9.87 0.43 8.43 -0.01 7 0L7 2.96C7.88 2.96 8.7 3.25 9.37 3.73C10.08 4.25 10.58 4.97 10.83 5.75C11.1 6.59 11.09 7.46 10.83 8.24C10.56 9.08 10.03 9.77 9.37 10.26C8.65 10.78 7.82 11.03 7 11.03L7 14Z" fill="#FFFFFF" fill-opacity="1.000000" fill-rule="evenodd"/>
</svg>
